<svg width="16" height="16" viewBox="0 0 16 16" fill="none" xmlns="http://www.w3.org/2000/svg">
<g clip-path="url(#clip0_6_7)">
<path d="M7.96906 0.21875C3.56844 0.21875 0 3.78656 0 8.18781C0 11.7088 2.28338 14.6959 5.44975 15.7497C5.848 15.8234 5.99425 15.5768 5.99425 15.3663C5.99425 15.1763 5.98681 14.5485 5.98344 13.8826C3.76638 14.3647 3.29856 12.9424 3.29856 12.9424C2.93606 12.0213 2.41375 11.7764 2.41375 11.7764C1.69075 11.2817 2.46825 11.2919 2.46825 11.2919C3.2685 11.3481 3.68987 12.1131 3.68987 12.1131C4.40062 13.3314 5.55412 12.9792 6.00887 12.7756C6.08037 12.2605 6.28694 11.909 6.51481 11.71C4.74481 11.5084 2.88406 10.8251 2.88406 7.77163C2.88406 6.90163 3.19538 6.19069 3.70519 5.63263C3.62244 5.43188 3.34969 4.62138 3.78238 3.52369C3.78238 3.52369 4.45156 3.3095 5.97444 4.34056C6.61006 4.16394 7.29181 4.07544 7.96906 4.07244C8.64631 4.07544 9.32856 4.16394 9.96544 4.34056C11.4865 3.3095 12.1547 3.52369 12.1547 3.52369C12.5885 4.62138 12.3156 5.43188 12.2329 5.63263C12.7438 6.19069 13.053 6.90156 13.053 7.77163C13.053 10.8324 11.1888 11.5064 9.41425 11.7036C9.70006 11.9509 9.95475 12.4359 9.95475 13.1794C9.95475 14.2456 9.9455 15.1038 9.9455 15.3663C9.9455 15.5784 10.0889 15.8269 10.4929 15.7486C13.6576 14.6937 15.9381 11.7076 15.9381 8.18781C15.9381 3.78656 12.3701 0.21875 7.96906 0.21875Z" fill="white"/>
<path d="M2.98468 11.5709C2.96718 11.6104 2.90481 11.6223 2.84812 11.5952C2.79031 11.5692 2.75781 11.5152 2.77656 11.4754C2.79374 11.4347 2.85612 11.4233 2.91381 11.4507C2.97174 11.4766 3.00474 11.5311 2.98468 11.5709ZM3.37668 11.9206C3.33868 11.9559 3.26437 11.9395 3.21393 11.8838C3.16181 11.8283 3.15206 11.754 3.19062 11.7182C3.22981 11.683 3.30187 11.6994 3.35412 11.7551C3.40624 11.8113 3.41637 11.8851 3.37662 11.9207M3.64562 12.3681C3.59674 12.4021 3.51687 12.3703 3.46756 12.2994C3.41874 12.2286 3.41874 12.1436 3.46862 12.1095C3.51812 12.0754 3.59674 12.1061 3.64674 12.1764C3.69549 12.2484 3.69549 12.3334 3.64556 12.3682M4.10037 12.8864C4.05668 12.9346 3.96368 12.9217 3.89556 12.8559C3.82593 12.7917 3.80649 12.7005 3.85031 12.6523C3.89449 12.6041 3.98806 12.6176 4.05668 12.6828C4.12587 12.7469 4.14693 12.8388 4.10037 12.8864ZM4.68812 13.0614C4.66893 13.1238 4.57931 13.1522 4.48906 13.1257C4.39893 13.0984 4.33993 13.0253 4.35812 12.9622C4.37687 12.8994 4.46687 12.8698 4.55781 12.8982C4.64781 12.9254 4.70687 12.9979 4.68812 13.0614ZM5.35712 13.1356C5.35937 13.2014 5.28281 13.2559 5.18806 13.2571C5.09274 13.2591 5.01568 13.2059 5.01468 13.1413C5.01468 13.0749 5.08949 13.0209 5.18474 13.0194C5.27949 13.0175 5.35712 13.0703 5.35712 13.1356ZM6.01424 13.1104C6.02562 13.1746 5.95974 13.2404 5.86568 13.2579C5.77318 13.2748 5.68756 13.2353 5.67574 13.1717C5.66424 13.1059 5.73137 13.0401 5.82368 13.0231C5.91793 13.0067 6.00224 13.0453 6.01424 13.1104Z" fill="white"/>
</g>
<defs>
<clipPath id="clip0_6_7">
<rect width="16" height="16" fill="white"/>
</clipPath>
</defs>
</svg>
